<svg width="18" height="16" viewBox="0 0 18 16" fill="none" xmlns="http://www.w3.org/2000/svg">
<path d="M16.5944 7.42372C16.7762 7.29297 16.9112 7.11058 16.9802 6.90211C17.0492 6.69363 17.0489 6.46954 16.9793 6.26125C16.9097 6.05296 16.7743 5.87092 16.592 5.74064C16.4098 5.61037 16.1898 5.5384 15.963 5.53483L11.5585 5.37427C11.5368 5.37283 11.5161 5.36538 11.4987 5.35281C11.4813 5.34024 11.4681 5.3231 11.4606 5.30344L9.9386 1.33677C9.86213 1.13496 9.72324 0.960703 9.54073 0.837585C9.35822 0.714467 9.14091 0.648438 8.91822 0.648438C8.69553 0.648438 8.47821 0.714467 8.2957 0.837585C8.11319 0.960703 7.9743 1.13496 7.89783 1.33677L6.38071 5.31761C6.37321 5.33726 6.35998 5.35441 6.34261 5.36698C6.32525 5.37954 6.30448 5.387 6.28283 5.38844L1.87828 5.549C1.6515 5.55257 1.43156 5.62454 1.24931 5.75481C1.06706 5.88509 0.931629 6.06713 0.862012 6.27542C0.792396 6.48371 0.792084 6.7078 0.861119 6.91627C0.930155 7.12474 1.06508 7.30714 1.24696 7.43788L4.70209 10.0587C4.71938 10.0718 4.7323 10.0896 4.73926 10.1097C4.74622 10.1299 4.74691 10.1515 4.74124 10.1721L3.55201 14.2379C3.49038 14.4449 3.49636 14.6653 3.56911 14.8689C3.64186 15.0726 3.77787 15.2496 3.95862 15.3761C4.13938 15.5025 4.35611 15.5721 4.57932 15.5755C4.80254 15.5788 5.02141 15.5158 5.20616 15.3948L8.85704 13.0337C8.87502 13.0217 8.89636 13.0153 8.91822 13.0153C8.94007 13.0153 8.96141 13.0217 8.97939 13.0337L12.6303 15.3948C12.8125 15.5199 13.0306 15.5871 13.2542 15.5871C13.4779 15.5871 13.696 15.5199 13.8782 15.3948C14.059 15.2696 14.1952 15.0934 14.2679 14.8904C14.3406 14.6875 14.3464 14.4677 14.2844 14.2615L13.0854 10.1815C13.0791 10.161 13.0794 10.1391 13.0864 10.1189C13.0934 10.0986 13.1067 10.0809 13.1246 10.0682L16.5944 7.42372Z" fill="#F3E140"/>
</svg>
