<svg width="17" height="17" viewBox="0 0 17 17" fill="none" xmlns="http://www.w3.org/2000/svg">
<path d="M13.4583 1.40667H12.75V0.703335C12.75 0.516799 12.6754 0.337903 12.5425 0.206002C12.4097 0.0741012 12.2295 0 12.0417 0C11.8538 0 11.6736 0.0741012 11.5408 0.206002C11.408 0.337903 11.3333 0.516799 11.3333 0.703335V1.40667H5.66667V0.703335C5.66667 0.516799 5.59204 0.337903 5.4592 0.206002C5.32636 0.0741012 5.14619 0 4.95833 0C4.77047 0 4.5903 0.0741012 4.45747 0.206002C4.32463 0.337903 4.25 0.516799 4.25 0.703335V1.40667H3.54167C2.6027 1.40779 1.70252 1.77865 1.03857 2.43791C0.374625 3.09718 0.00112473 3.99101 0 4.92335L0 13.3634C0.00112473 14.2957 0.374625 15.1895 1.03857 15.8488C1.70252 16.5081 2.6027 16.8789 3.54167 16.88H13.4583C14.3973 16.8789 15.2975 16.5081 15.9614 15.8488C16.6254 15.1895 16.9989 14.2957 17 13.3634V4.92335C16.9989 3.99101 16.6254 3.09718 15.9614 2.43791C15.2975 1.77865 14.3973 1.40779 13.4583 1.40667ZM1.41667 4.92335C1.41667 4.36374 1.64055 3.82705 2.03906 3.43135C2.43758 3.03564 2.97808 2.81334 3.54167 2.81334H13.4583C14.0219 2.81334 14.5624 3.03564 14.9609 3.43135C15.3595 3.82705 15.5833 4.36374 15.5833 4.92335V5.62668H1.41667V4.92335ZM13.4583 15.4734H3.54167C2.97808 15.4734 2.43758 15.2511 2.03906 14.8554C1.64055 14.4597 1.41667 13.923 1.41667 13.3634V7.03335H15.5833V13.3634C15.5833 13.923 15.3595 14.4597 14.9609 14.8554C14.5624 15.2511 14.0219 15.4734 13.4583 15.4734Z" fill="white"/>
<path d="M8.5 11.6051C9.0868 11.6051 9.5625 11.1328 9.5625 10.5501C9.5625 9.96746 9.0868 9.49512 8.5 9.49512C7.9132 9.49512 7.4375 9.96746 7.4375 10.5501C7.4375 11.1328 7.9132 11.6051 8.5 11.6051Z" fill="white"/>
<path d="M4.95801 11.6051C5.54481 11.6051 6.02051 11.1328 6.02051 10.5501C6.02051 9.96746 5.54481 9.49512 4.95801 9.49512C4.37121 9.49512 3.89551 9.96746 3.89551 10.5501C3.89551 11.1328 4.37121 11.6051 4.95801 11.6051Z" fill="white"/>
<path d="M12.042 11.6051C12.6288 11.6051 13.1045 11.1328 13.1045 10.5501C13.1045 9.96746 12.6288 9.49512 12.042 9.49512C11.4552 9.49512 10.9795 9.96746 10.9795 10.5501C10.9795 11.1328 11.4552 11.6051 12.042 11.6051Z" fill="white"/>
</svg>
