<svg width="12" height="14" viewBox="0 0 12 14" fill="none" xmlns="http://www.w3.org/2000/svg">
<path d="M7.03893 9.5394C6.36509 9.43218 5.73316 9.14353 5.21093 8.7044C4.85193 10.5044 4.41093 12.2274 3.11893 13.1294C2.71893 10.4104 3.70893 8.3674 4.16493 6.20041C3.37993 4.93841 4.25593 2.4004 5.90593 3.02741C7.93593 3.79641 4.14793 7.7144 6.69093 8.2034C9.34493 8.7144 10.4289 3.79341 8.78293 2.1924C6.40393 -0.119595 1.85893 2.13941 2.41893 5.44841C2.55493 6.25741 3.42793 6.50241 2.76693 7.61841C1.24393 7.29541 0.79093 6.14541 0.84393 4.61341C0.960435 3.43736 1.48836 2.34019 2.33466 1.5153C3.18096 0.690408 4.29128 0.190752 5.46993 0.104405C8.33693 -0.202595 11.0279 1.1134 11.3999 3.69741C11.8179 6.6124 10.1059 9.7684 7.03993 9.5414L7.03893 9.5394Z" fill="white"/>
</svg>
