<svg width="141" height="25" viewBox="0 0 141 25" fill="none" xmlns="http://www.w3.org/2000/svg">
<path d="M0 24.5822V1.81058H7.38956C8.9924 1.81058 10.4067 1.99629 11.6324 2.36769C12.8816 2.71588 13.8599 3.29619 14.567 4.10864C15.2977 4.92108 15.663 6.02368 15.663 7.41643C15.663 8.57707 15.3802 9.61003 14.8145 10.5153C14.2723 11.3974 13.4827 12.0125 12.4456 12.3607V12.5C13.8127 12.7786 14.8852 13.3473 15.663 14.2061C16.4645 15.0418 16.8652 16.214 16.8652 17.7228C16.8652 19.2781 16.4762 20.5664 15.6984 21.5877C14.9441 22.6091 13.8952 23.3635 12.5517 23.851C11.2081 24.3384 9.68775 24.5822 7.99063 24.5822H0ZM4.10138 11.2117H7.036C8.63884 11.2117 9.80561 10.9215 10.5363 10.3412C11.267 9.76091 11.6324 8.98329 11.6324 8.00836C11.6324 6.89415 11.2552 6.10492 10.501 5.64067C9.74668 5.17642 8.61526 4.94429 7.10671 4.94429H4.10138V11.2117ZM4.10138 21.4485H7.56635C9.26347 21.4485 10.5717 21.1467 11.4909 20.5432C12.4102 19.9164 12.8699 18.9647 12.8699 17.688C12.8699 16.481 12.422 15.6105 11.5263 15.0766C10.6306 14.5195 9.31061 14.2409 7.56635 14.2409H4.10138V21.4485Z" fill="white"/>
<path d="M28.2034 25C26.577 25 25.1038 24.6518 23.7838 23.9554C22.4874 23.2358 21.462 22.2145 20.7077 20.8914C19.9535 19.545 19.5763 17.9201 19.5763 16.0167C19.5763 14.1597 19.9652 12.5696 20.7431 11.2465C21.5209 9.90019 22.5227 8.86722 23.7484 8.14763C24.9741 7.42804 26.2705 7.06825 27.6377 7.06825C29.2169 7.06825 30.5369 7.41644 31.5976 8.11281C32.6583 8.80919 33.448 9.77252 33.9665 11.0028C34.5087 12.2098 34.7797 13.6026 34.7797 15.1811C34.7797 15.5525 34.7562 15.9123 34.709 16.2604C34.6854 16.6086 34.6383 16.9452 34.5676 17.2702H22.617V14.2061H31.1733C31.1733 12.9759 30.8905 12.0125 30.3248 11.3162C29.7591 10.5966 28.8869 10.2368 27.7084 10.2368C27.0484 10.2368 26.4002 10.4109 25.7638 10.7591C25.1509 11.1072 24.6323 11.6992 24.2081 12.5348C23.8073 13.3705 23.607 14.5311 23.607 16.0167C23.607 17.363 23.8427 18.4656 24.3141 19.3245C24.7856 20.1602 25.4102 20.7869 26.188 21.2047C26.9659 21.5993 27.8027 21.7967 28.6984 21.7967C29.4526 21.7967 30.1598 21.6922 30.8198 21.4833C31.5033 21.2744 32.1398 20.9842 32.729 20.6128L34.1433 23.1894C33.3419 23.7465 32.4226 24.1876 31.3855 24.5125C30.3719 24.8375 29.3112 25 28.2034 25Z" fill="white"/>
<path d="M42.4563 25C41.4427 25 40.547 24.7911 39.7692 24.3733C38.9913 23.9554 38.3785 23.3751 37.9306 22.6323C37.5063 21.8663 37.2942 20.9842 37.2942 19.9861C37.2942 18.0594 38.1074 16.6086 39.7338 15.6337C41.3838 14.6356 43.9884 13.9508 47.5477 13.5794C47.5241 12.9991 47.4062 12.4652 47.1941 11.9777C47.0055 11.4903 46.6755 11.1072 46.2041 10.8287C45.7563 10.5269 45.1434 10.376 44.3656 10.376C43.517 10.376 42.6802 10.5269 41.8552 10.8287C41.0538 11.1305 40.2642 11.5135 39.4863 11.9777L38.0013 9.26184C38.6378 8.86722 39.3331 8.50743 40.0874 8.18245C40.8417 7.83426 41.6431 7.56732 42.4916 7.38162C43.3402 7.1727 44.2241 7.06825 45.1434 7.06825C46.5812 7.06825 47.7716 7.3584 48.7144 7.93872C49.6809 8.49582 50.3998 9.33148 50.8712 10.4457C51.3662 11.5367 51.6137 12.883 51.6137 14.4847V24.5822H48.2548L47.9719 22.702H47.8305C47.0291 23.3519 46.1923 23.8974 45.3202 24.3384C44.4481 24.7795 43.4934 25 42.4563 25ZM43.7291 21.727C44.4363 21.727 45.0845 21.5877 45.6738 21.3092C46.2866 21.0074 46.9112 20.5664 47.5477 19.9861V16.3649C45.9684 16.5506 44.7191 16.7943 43.7998 17.0961C42.8806 17.3979 42.2206 17.7693 41.8199 18.2103C41.4427 18.6281 41.2542 19.1272 41.2542 19.7075C41.2542 20.4271 41.4899 20.9494 41.9613 21.2744C42.4327 21.5761 43.022 21.727 43.7291 21.727Z" fill="white"/>
<path d="M62.0439 24.9304C60.0404 24.9304 58.6143 24.3617 57.7658 23.2242C56.9408 22.0636 56.5283 20.5664 56.5283 18.7326V10.6546H54.0533V7.66017L56.7404 7.48607L57.2354 2.12396H60.6297V7.48607H65.0493V10.6546H60.6297V18.7326C60.6297 19.7307 60.83 20.4851 61.2307 20.9958C61.6314 21.4833 62.2443 21.727 63.0693 21.727C63.3757 21.727 63.6821 21.7038 63.9886 21.6574C64.295 21.611 64.5896 21.5181 64.8725 21.3788L65.615 24.1992C65.1671 24.4081 64.6368 24.5822 64.0239 24.7214C63.4111 24.8607 62.7511 24.9304 62.0439 24.9304Z" fill="white"/>
<path d="M69.0562 24.5822V1.81058H76.4457C78.0486 1.81058 79.4628 1.99629 80.6886 2.36769C81.9378 2.71588 82.916 3.29619 83.6232 4.10864C84.3539 4.92108 84.7192 6.02368 84.7192 7.41643C84.7192 8.57707 84.4364 9.61003 83.8707 10.5153C83.3285 11.3974 82.5389 12.0125 81.5018 12.3607V12.5C82.8689 12.7786 83.9414 13.3473 84.7192 14.2061C85.5206 15.0418 85.9213 16.214 85.9213 17.7228C85.9213 19.2781 85.5324 20.5664 84.7546 21.5877C84.0003 22.6091 82.9514 23.3635 81.6078 23.851C80.2643 24.3384 78.7439 24.5822 77.0468 24.5822H69.0562ZM73.1576 11.2117H76.0922C77.695 11.2117 78.8618 10.9215 79.5925 10.3412C80.3232 9.76091 80.6886 8.98329 80.6886 8.00836C80.6886 6.89415 80.3114 6.10492 79.5571 5.64067C78.8029 5.17642 77.6714 4.94429 76.1629 4.94429H73.1576V11.2117ZM73.1576 21.4485H76.6225C78.3196 21.4485 79.6278 21.1467 80.5471 20.5432C81.4664 19.9164 81.926 18.9647 81.926 17.688C81.926 16.481 81.4782 15.6105 80.5825 15.0766C79.6868 14.5195 78.3668 14.2409 76.6225 14.2409H73.1576V21.4485Z" fill="white"/>
<path d="M94.9614 25C93.0992 25 91.7439 24.4081 90.8953 23.2242C90.0468 22.0404 89.6225 20.3691 89.6225 18.2103V7.48607H93.6885V17.688C93.6885 19.104 93.9007 20.1021 94.3249 20.6825C94.7492 21.2628 95.4328 21.5529 96.3756 21.5529C97.1299 21.5529 97.7899 21.3672 98.3556 20.9958C98.9449 20.6244 99.5695 20.0209 100.23 19.1852V7.48607H104.296V24.5822H100.972L100.654 22.0752H100.548C99.7934 22.9573 98.9685 23.6653 98.0727 24.1992C97.177 24.7331 96.1399 25 94.9614 25Z" fill="white"/>
<path d="M115.527 25C113.359 25 111.626 24.2108 110.33 22.6323C109.033 21.0539 108.385 18.8603 108.385 16.0515C108.385 14.1945 108.727 12.5929 109.41 11.2465C110.118 9.90019 111.025 8.86722 112.133 8.14763C113.264 7.42804 114.466 7.06825 115.739 7.06825C116.729 7.06825 117.566 7.23073 118.25 7.55571C118.957 7.88069 119.64 8.34494 120.3 8.94847L120.159 6.19777V0H124.225V24.5822H120.866L120.583 22.7368H120.442C119.805 23.3635 119.063 23.8974 118.214 24.3384C117.366 24.7795 116.47 25 115.527 25ZM116.517 21.6922C117.201 21.6922 117.837 21.5413 118.426 21.2396C119.016 20.9146 119.593 20.4271 120.159 19.7772V11.8036C119.57 11.2697 118.98 10.8983 118.391 10.6894C117.802 10.4805 117.212 10.376 116.623 10.376C115.869 10.376 115.185 10.5966 114.572 11.0376C113.983 11.4786 113.5 12.117 113.123 12.9526C112.769 13.7883 112.592 14.8097 112.592 16.0167C112.592 17.8505 112.934 19.2549 113.618 20.2298C114.301 21.2047 115.268 21.6922 116.517 21.6922Z" fill="white"/>
<path d="M134.247 25C133.045 25 131.854 24.7795 130.676 24.3384C129.521 23.8974 128.519 23.2823 127.67 22.493L129.474 20.195C130.252 20.8217 131.041 21.2744 131.843 21.5529C132.644 21.8315 133.493 21.9708 134.388 21.9708C135.331 21.9708 136.026 21.7734 136.474 21.3788C136.922 20.9842 137.146 20.4967 137.146 19.9164C137.146 19.4522 136.969 19.0576 136.616 18.7326C136.286 18.4076 135.85 18.1291 135.308 17.8969C134.765 17.6648 134.164 17.4327 133.504 17.2006C132.656 16.8988 131.866 16.539 131.135 16.1212C130.405 15.6801 129.804 15.1462 129.332 14.5195C128.884 13.8695 128.66 13.0919 128.66 12.1866C128.66 10.6778 129.226 9.44754 130.358 8.49582C131.489 7.54411 133.021 7.06825 134.954 7.06825C136.133 7.06825 137.217 7.26555 138.207 7.66017C139.197 8.03157 140.045 8.51903 140.752 9.12256L138.949 11.3858C138.336 10.9448 137.712 10.6198 137.075 10.4109C136.439 10.202 135.767 10.0975 135.06 10.0975C134.188 10.0975 133.54 10.2832 133.115 10.6546C132.691 11.026 132.479 11.467 132.479 11.9777C132.479 12.3955 132.609 12.7553 132.868 13.0571C133.151 13.3357 133.551 13.591 134.07 13.8231C134.589 14.032 135.213 14.2526 135.944 14.4847C136.84 14.7864 137.676 15.1578 138.454 15.5989C139.232 16.0167 139.845 16.5622 140.293 17.2354C140.764 17.8853 141 18.7094 141 19.7075C141 20.6825 140.741 21.5761 140.222 22.3886C139.704 23.1778 138.938 23.8162 137.924 24.3036C136.934 24.7679 135.708 25 134.247 25Z" fill="white"/>
</svg>
