<svg width="14" height="14" viewBox="0 0 14 14" fill="none" xmlns="http://www.w3.org/2000/svg">
<path d="M0.9745 4.52773C0.984834 4.01953 1.0812 3.51675 1.2595 3.04073C1.41336 2.63191 1.65465 2.26162 1.9665 1.95573C2.27238 1.64389 2.64267 1.4026 3.0515 1.24873C3.52726 1.07088 4.02969 0.974861 4.5375 0.964734C5.1905 0.934734 5.3995 0.927734 7.0635 0.927734C8.7275 0.927734 8.9375 0.934734 9.5885 0.964734C10.0967 0.975068 10.5995 1.07143 11.0755 1.24973C11.4824 1.40709 11.852 1.64767 12.1605 1.95608C12.4691 2.26448 12.7099 2.63392 12.8675 3.04073C13.0455 3.51681 13.1415 4.01959 13.1515 4.52773C13.1815 5.18073 13.1885 5.38973 13.1885 7.05373C13.1885 8.71773 13.1815 8.92773 13.1515 9.57973C13.1412 10.0879 13.0448 10.5907 12.8665 11.0667C12.7091 11.4738 12.4684 11.8434 12.1598 12.152C11.8512 12.4606 11.4815 12.7013 11.0745 12.8587C10.5985 13.037 10.0957 13.1334 9.5875 13.1437C8.9345 13.1737 8.7255 13.1807 7.0615 13.1807C5.3975 13.1807 5.1895 13.1737 4.5355 13.1437C4.02729 13.1334 3.52451 13.037 3.0485 12.8587C2.64199 12.701 2.27289 12.4602 1.96483 12.1516C1.65677 11.843 1.41653 11.4735 1.2595 11.0667C1.0812 10.5907 0.984834 10.0879 0.9745 9.57973C0.9445 8.92773 0.9375 8.71773 0.9375 7.05373C0.9375 5.38973 0.9445 5.18173 0.9745 4.52773ZM2.0745 9.52773C2.07908 9.91636 2.15045 10.3013 2.2855 10.6657C2.38777 10.93 2.54427 11.17 2.74492 11.3701C2.94558 11.5703 3.18593 11.7261 3.4505 11.8277C3.81462 11.9627 4.19921 12.034 4.5875 12.0387C5.2335 12.0677 5.4275 12.0747 7.0625 12.0747C8.6975 12.0747 8.8925 12.0687 9.5375 12.0387C9.92646 12.0342 10.3117 11.9629 10.6765 11.8277C10.9402 11.7258 11.1797 11.5699 11.3797 11.3699C11.5796 11.17 11.7356 10.9305 11.8375 10.6667C11.973 10.302 12.0447 9.91675 12.0495 9.52773C12.0785 8.88173 12.0855 8.68773 12.0855 7.05273C12.0855 5.41773 12.0795 5.22373 12.0495 4.57673C12.0442 4.18874 11.9725 3.80453 11.8375 3.44073C11.7357 3.1765 11.5798 2.93651 11.3796 2.73621C11.1795 2.5359 10.9396 2.37973 10.6755 2.27773C10.3111 2.14265 9.92613 2.07127 9.5375 2.06673C8.8925 2.03773 8.6985 2.02773 7.0635 2.02773C5.4275 2.02773 5.2375 2.03773 4.5875 2.06773C4.19921 2.07243 3.81462 2.1438 3.4505 2.27873C3.18604 2.3775 2.94691 2.53396 2.7505 2.73673C2.54773 2.93315 2.39127 3.17227 2.2925 3.43673C2.15738 3.80115 2.086 4.1861 2.0815 4.57473C2.0475 5.22773 2.0375 5.41773 2.0375 7.05373C2.0375 8.68973 2.0475 8.88373 2.0765 9.52773H2.0745Z" fill="white"/>
</svg>
