<svg width="7" height="14" viewBox="0 0 7 14" fill="none" xmlns="http://www.w3.org/2000/svg">
<path d="M5.87572 6.58337H4.17572V13.1294H1.60572V6.58337H0.386719V4.28337H1.60872V2.79437C1.57296 2.43868 1.6143 2.07946 1.72993 1.7412C1.84555 1.40293 2.03274 1.09356 2.27874 0.834184C2.52474 0.574804 2.82376 0.371505 3.15543 0.238141C3.48711 0.104778 3.84364 0.0444842 4.20072 0.0613699L6.10072 0.0703699V2.30337H4.71972C4.64217 2.29992 4.56486 2.31429 4.49372 2.34537C4.42141 2.37654 4.35713 2.42373 4.30572 2.48337C4.25291 2.54349 4.21399 2.61451 4.19172 2.69137C4.16891 2.76888 4.16311 2.85041 4.17472 2.93037V4.28537H6.09572L5.87572 6.58337Z" fill="white"/>
</svg>
