<svg width="14" height="11" viewBox="0 0 14 11" fill="none" xmlns="http://www.w3.org/2000/svg">
<path d="M13.1338 1.95298C12.6747 2.15337 12.1884 2.28479 11.6908 2.34298C12.2127 2.03652 12.6056 1.55117 12.7968 0.97698C12.301 1.26554 11.7601 1.46839 11.1968 1.57698C10.9601 1.32912 10.6754 1.13198 10.3602 0.997543C10.0449 0.86311 9.70556 0.794193 9.36282 0.79498C8.70171 0.790455 8.06584 1.04861 7.59499 1.51271C7.12414 1.97681 6.85684 2.60887 6.85181 3.26998C6.85137 3.45987 6.87318 3.64917 6.91681 3.83398C5.92045 3.78617 4.94501 3.53107 4.05281 3.08498C3.16094 2.63899 2.37182 2.01199 1.73581 1.24398C1.51224 1.6204 1.39444 2.05018 1.39481 2.48798C1.39538 2.89733 1.49788 3.3001 1.69307 3.65992C1.88826 4.01974 2.16998 4.32529 2.51281 4.54898C2.11367 4.53706 1.72302 4.43083 1.37281 4.23898V4.27098C1.37683 4.84594 1.58002 5.40173 1.94779 5.84371C2.31556 6.28569 2.82516 6.58652 3.38982 6.69498C3.01953 6.7945 2.63157 6.80919 2.25481 6.73798C2.41954 7.23258 2.73406 7.66368 3.15478 7.97151C3.57549 8.27934 4.08156 8.44866 4.60281 8.45598C3.54 9.26195 2.20866 9.62985 0.882812 9.48398C2.03589 10.212 3.37214 10.5973 4.73581 10.595C5.66915 10.6084 6.59584 10.4362 7.46207 10.0884C8.32829 9.74058 9.11678 9.22415 9.78173 8.56906C10.4467 7.91397 10.9748 7.13329 11.3355 6.27236C11.6962 5.41143 11.8822 4.48741 11.8828 3.55398C11.8828 3.44698 11.8828 3.33998 11.8758 3.23398C12.3682 2.88542 12.7942 2.45158 13.1338 1.95298Z" fill="white"/>
</svg>
