<svg width="902" height="180" viewBox="0 0 902 180" fill="none" xmlns="http://www.w3.org/2000/svg">
<mask id="path-1-outside-1_65_133" maskUnits="userSpaceOnUse" x="0" y="0" width="902" height="180" fill="black">
<rect fill="white" width="902" height="180"/>
<path d="M65.4586 179C54.0483 179 42.8136 176.981 31.7544 172.944C20.6953 168.731 10.7771 162.411 2 153.985L22.5385 128.707C28.6824 133.973 35.6164 138.099 43.3402 141.083C51.2397 144.067 58.9635 145.559 66.5118 145.559C74.5868 145.559 80.5552 144.067 84.4172 141.083C88.4546 138.099 90.4734 134.061 90.4734 128.97C90.4734 125.284 89.4201 122.388 87.3136 120.281C85.3827 117.999 82.574 115.98 78.8876 114.225C75.2012 112.469 70.8126 110.538 65.7219 108.432L43.3402 99.216C37.5473 96.5828 31.93 93.2475 26.4882 89.21C21.2219 84.997 16.9211 79.9063 13.5858 73.9379C10.426 67.7939 8.84616 60.5089 8.84616 52.0828C8.84616 42.6035 11.3915 34.0897 16.4823 26.5414C21.7485 18.8176 28.9458 12.6736 38.074 8.10947C47.3777 3.36983 57.998 1 69.9349 1C80.2919 1 90.2978 2.8432 99.9527 6.52959C109.608 10.216 118.034 15.57 125.231 22.5917L104.692 47.6065C99.075 43.3935 93.2821 40.146 87.3136 37.8639C81.5207 35.5819 75.7278 34.4408 69.9349 34.4408C63.2643 34.4408 57.9103 35.8452 53.8728 38.6538C50.0108 41.287 48.0799 45.0611 48.0799 49.9763C48.0799 53.3116 49.2209 56.2081 51.503 58.6657C53.785 60.9477 56.9448 62.9665 60.9823 64.7219C65.0197 66.3018 69.4083 68.145 74.1479 70.2515L96.2663 79.2041C103.288 82.0128 109.256 85.5237 114.172 89.7367C119.262 93.9497 123.212 99.0404 126.021 105.009C128.829 110.802 130.234 117.736 130.234 125.811C130.234 135.29 127.688 144.067 122.598 152.142C117.507 160.217 110.134 166.712 100.479 171.627C90.8245 176.542 79.1509 179 65.4586 179Z"/>
<path d="M214.669 179C202.205 179 190.971 176.279 180.965 170.837C170.959 165.395 163.059 157.584 157.267 147.402C151.474 137.221 148.577 124.933 148.577 110.538C148.577 96.3195 151.474 84.1193 157.267 73.9379C163.235 63.7564 170.959 55.9448 180.438 50.503C189.917 44.8856 199.836 42.0769 210.193 42.0769C222.656 42.0769 233.013 44.8856 241.264 50.503C249.514 55.9448 255.658 63.4053 259.696 72.8846C263.733 82.3639 265.752 92.9842 265.752 104.746C265.752 108.081 265.576 111.416 265.225 114.751C264.874 117.911 264.523 120.457 264.172 122.388H178.595L178.068 95.5296H232.574C232.574 88.6834 230.907 83.0661 227.571 78.6775C224.236 74.1134 218.706 71.8314 210.983 71.8314C206.77 71.8314 202.644 72.9724 198.607 75.2544C194.569 77.5365 191.234 81.4862 188.601 87.1035C185.968 92.7209 184.739 100.533 184.915 110.538C185.09 120.369 186.845 128.093 190.181 133.71C193.692 139.327 198.08 143.365 203.346 145.822C208.613 148.105 214.142 149.246 219.935 149.246C225.026 149.246 229.853 148.543 234.417 147.139C239.157 145.559 243.809 143.453 248.373 140.82L261.012 164.518C254.517 169.082 247.144 172.68 238.894 175.314C230.643 177.771 222.568 179 214.669 179Z"/>
<path d="M292.499 175.84V45.2367H324.096L326.729 61.8254H327.783C333.225 56.3836 339.368 51.7318 346.215 47.8698C353.061 44.0079 360.872 42.0769 369.65 42.0769C384.044 42.0769 394.401 46.8166 400.721 56.2958C407.04 65.5996 410.2 78.4142 410.2 94.7396V175.84H371.493V99.7426C371.493 90.2633 370.176 83.7682 367.543 80.2574C365.085 76.7465 361.048 74.9911 355.431 74.9911C350.515 74.9911 346.302 76.1321 342.792 78.4142C339.281 80.5207 335.419 83.5927 331.206 87.6302V175.84H292.499Z"/>
<path d="M481.628 179C473.026 179 464.161 177.332 455.033 173.997C445.905 170.662 438.093 165.834 431.598 159.515L447.924 137.66C453.892 142.399 459.773 145.735 465.566 147.666C471.534 149.421 477.239 150.299 482.681 150.299C488.474 150.299 492.687 149.333 495.32 147.402C497.953 145.296 499.27 142.575 499.27 139.24C499.27 136.255 498.041 133.798 495.583 131.867C493.301 129.936 490.229 128.268 486.367 126.864C482.681 125.284 478.468 123.616 473.728 121.861C467.409 119.579 461.616 116.682 456.35 113.172C451.083 109.661 446.783 105.448 443.447 100.533C440.288 95.6173 438.708 89.7367 438.708 82.8905C438.708 70.6026 443.272 60.7722 452.4 53.3994C461.704 45.8511 473.816 42.0769 488.737 42.0769C498.217 42.0769 506.818 43.6568 514.542 46.8166C522.441 49.8008 529.2 53.7505 534.817 58.6657L518.228 80.2574C513.489 76.9221 508.749 74.5523 504.009 73.1479C499.27 71.568 494.618 70.7781 490.054 70.7781C484.963 70.7781 481.189 71.7436 478.731 73.6745C476.274 75.6055 475.045 78.0631 475.045 81.0473C475.045 83.5049 475.923 85.6114 477.678 87.3668C479.434 89.1223 482.067 90.7899 485.578 92.3698C489.264 93.7742 493.828 95.354 499.27 97.1094C505.94 99.3915 511.997 102.288 517.438 105.799C523.056 109.134 527.444 113.347 530.604 118.438C533.764 123.529 535.344 129.673 535.344 136.87C535.344 144.769 533.237 151.879 529.024 158.198C524.987 164.518 519.018 169.608 511.119 173.47C503.22 177.157 493.389 179 481.628 179Z"/>
<path d="M616.012 179C604.953 179 594.596 176.367 584.941 171.101C575.287 165.659 567.387 157.847 561.243 147.666C555.275 137.309 552.291 124.933 552.291 110.538C552.291 96.144 555.275 83.856 561.243 73.6745C567.387 63.3175 575.287 55.5059 584.941 50.2396C594.596 44.7978 604.953 42.0769 616.012 42.0769C626.896 42.0769 637.165 44.7978 646.82 50.2396C656.475 55.5059 664.287 63.3175 670.255 73.6745C676.399 83.856 679.471 96.144 679.471 110.538C679.471 124.933 676.399 137.309 670.255 147.666C664.287 157.847 656.475 165.659 646.82 171.101C637.165 176.367 626.896 179 616.012 179ZM616.012 147.666C621.279 147.666 625.667 146.174 629.178 143.189C632.864 140.205 635.585 135.904 637.341 130.287C639.096 124.67 639.974 118.087 639.974 110.538C639.974 102.99 639.096 96.4073 637.341 90.7899C635.585 85.1726 632.864 80.8718 629.178 77.8876C625.667 74.9033 621.279 73.4112 616.012 73.4112C610.571 73.4112 606.094 74.9033 602.583 77.8876C599.073 80.8718 596.439 85.1726 594.684 90.7899C592.929 96.4073 592.051 102.99 592.051 110.538C592.051 118.087 592.929 124.67 594.684 130.287C596.439 135.904 599.073 140.205 602.583 143.189C606.094 146.174 610.571 147.666 616.012 147.666Z"/>
<path d="M705.983 175.84V45.2367H737.581L740.214 68.145H741.267C746.007 59.3678 751.624 52.8728 758.12 48.6598C764.79 44.2712 771.549 42.0769 778.395 42.0769C782.081 42.0769 785.153 42.3402 787.611 42.8669C790.068 43.2179 792.175 43.8323 793.93 44.71L786.557 77.6242C784.451 77.0976 782.432 76.7465 780.501 76.571C778.57 76.2199 776.2 76.0444 773.392 76.0444C768.477 76.0444 763.298 77.7998 757.856 81.3106C752.59 84.8215 748.201 91.0532 744.69 100.006V175.84H705.983Z"/>
<path d="M847.284 179C838.682 179 829.818 177.332 820.689 173.997C811.561 170.662 803.75 165.834 797.254 159.515L813.58 137.66C819.548 142.399 825.429 145.735 831.222 147.666C837.19 149.421 842.896 150.299 848.337 150.299C854.13 150.299 858.343 149.333 860.976 147.402C863.609 145.296 864.926 142.575 864.926 139.24C864.926 136.255 863.697 133.798 861.24 131.867C858.958 129.936 855.886 128.268 852.024 126.864C848.337 125.284 844.124 123.616 839.385 121.861C833.065 119.579 827.272 116.682 822.006 113.172C816.74 109.661 812.439 105.448 809.104 100.533C805.944 95.6173 804.364 89.7367 804.364 82.8905C804.364 70.6026 808.928 60.7722 818.056 53.3994C827.36 45.8511 839.472 42.0769 854.394 42.0769C863.873 42.0769 872.474 43.6568 880.198 46.8166C888.098 49.8008 894.856 53.7505 900.473 58.6657L883.885 80.2574C879.145 76.9221 874.405 74.5523 869.666 73.1479C864.926 71.568 860.274 70.7781 855.71 70.7781C850.619 70.7781 846.845 71.7436 844.388 73.6745C841.93 75.6055 840.701 78.0631 840.701 81.0473C840.701 83.5049 841.579 85.6114 843.334 87.3668C845.09 89.1223 847.723 90.7899 851.234 92.3698C854.92 93.7742 859.484 95.354 864.926 97.1094C871.597 99.3915 877.653 102.288 883.095 105.799C888.712 109.134 893.101 113.347 896.26 118.438C899.42 123.529 901 129.673 901 136.87C901 144.769 898.894 151.879 894.681 158.198C890.643 164.518 884.675 169.608 876.775 173.47C868.876 177.157 859.045 179 847.284 179Z"/>
</mask>
<path d="M65.4586 179C54.0483 179 42.8136 176.981 31.7544 172.944C20.6953 168.731 10.7771 162.411 2 153.985L22.5385 128.707C28.6824 133.973 35.6164 138.099 43.3402 141.083C51.2397 144.067 58.9635 145.559 66.5118 145.559C74.5868 145.559 80.5552 144.067 84.4172 141.083C88.4546 138.099 90.4734 134.061 90.4734 128.97C90.4734 125.284 89.4201 122.388 87.3136 120.281C85.3827 117.999 82.574 115.98 78.8876 114.225C75.2012 112.469 70.8126 110.538 65.7219 108.432L43.3402 99.216C37.5473 96.5828 31.93 93.2475 26.4882 89.21C21.2219 84.997 16.9211 79.9063 13.5858 73.9379C10.426 67.7939 8.84616 60.5089 8.84616 52.0828C8.84616 42.6035 11.3915 34.0897 16.4823 26.5414C21.7485 18.8176 28.9458 12.6736 38.074 8.10947C47.3777 3.36983 57.998 1 69.9349 1C80.2919 1 90.2978 2.8432 99.9527 6.52959C109.608 10.216 118.034 15.57 125.231 22.5917L104.692 47.6065C99.075 43.3935 93.2821 40.146 87.3136 37.8639C81.5207 35.5819 75.7278 34.4408 69.9349 34.4408C63.2643 34.4408 57.9103 35.8452 53.8728 38.6538C50.0108 41.287 48.0799 45.0611 48.0799 49.9763C48.0799 53.3116 49.2209 56.2081 51.503 58.6657C53.785 60.9477 56.9448 62.9665 60.9823 64.7219C65.0197 66.3018 69.4083 68.145 74.1479 70.2515L96.2663 79.2041C103.288 82.0128 109.256 85.5237 114.172 89.7367C119.262 93.9497 123.212 99.0404 126.021 105.009C128.829 110.802 130.234 117.736 130.234 125.811C130.234 135.29 127.688 144.067 122.598 152.142C117.507 160.217 110.134 166.712 100.479 171.627C90.8245 176.542 79.1509 179 65.4586 179Z" stroke="black" stroke-opacity="0.2" stroke-width="2" mask="url(#path-1-outside-1_65_133)"/>
<path d="M214.669 179C202.205 179 190.971 176.279 180.965 170.837C170.959 165.395 163.059 157.584 157.267 147.402C151.474 137.221 148.577 124.933 148.577 110.538C148.577 96.3195 151.474 84.1193 157.267 73.9379C163.235 63.7564 170.959 55.9448 180.438 50.503C189.917 44.8856 199.836 42.0769 210.193 42.0769C222.656 42.0769 233.013 44.8856 241.264 50.503C249.514 55.9448 255.658 63.4053 259.696 72.8846C263.733 82.3639 265.752 92.9842 265.752 104.746C265.752 108.081 265.576 111.416 265.225 114.751C264.874 117.911 264.523 120.457 264.172 122.388H178.595L178.068 95.5296H232.574C232.574 88.6834 230.907 83.0661 227.571 78.6775C224.236 74.1134 218.706 71.8314 210.983 71.8314C206.77 71.8314 202.644 72.9724 198.607 75.2544C194.569 77.5365 191.234 81.4862 188.601 87.1035C185.968 92.7209 184.739 100.533 184.915 110.538C185.09 120.369 186.845 128.093 190.181 133.71C193.692 139.327 198.08 143.365 203.346 145.822C208.613 148.105 214.142 149.246 219.935 149.246C225.026 149.246 229.853 148.543 234.417 147.139C239.157 145.559 243.809 143.453 248.373 140.82L261.012 164.518C254.517 169.082 247.144 172.68 238.894 175.314C230.643 177.771 222.568 179 214.669 179Z" stroke="black" stroke-opacity="0.2" stroke-width="2" mask="url(#path-1-outside-1_65_133)"/>
<path d="M292.499 175.84V45.2367H324.096L326.729 61.8254H327.783C333.225 56.3836 339.368 51.7318 346.215 47.8698C353.061 44.0079 360.872 42.0769 369.65 42.0769C384.044 42.0769 394.401 46.8166 400.721 56.2958C407.04 65.5996 410.2 78.4142 410.2 94.7396V175.84H371.493V99.7426C371.493 90.2633 370.176 83.7682 367.543 80.2574C365.085 76.7465 361.048 74.9911 355.431 74.9911C350.515 74.9911 346.302 76.1321 342.792 78.4142C339.281 80.5207 335.419 83.5927 331.206 87.6302V175.84H292.499Z" stroke="black" stroke-opacity="0.2" stroke-width="2" mask="url(#path-1-outside-1_65_133)"/>
<path d="M481.628 179C473.026 179 464.161 177.332 455.033 173.997C445.905 170.662 438.093 165.834 431.598 159.515L447.924 137.66C453.892 142.399 459.773 145.735 465.566 147.666C471.534 149.421 477.239 150.299 482.681 150.299C488.474 150.299 492.687 149.333 495.32 147.402C497.953 145.296 499.27 142.575 499.27 139.24C499.27 136.255 498.041 133.798 495.583 131.867C493.301 129.936 490.229 128.268 486.367 126.864C482.681 125.284 478.468 123.616 473.728 121.861C467.409 119.579 461.616 116.682 456.35 113.172C451.083 109.661 446.783 105.448 443.447 100.533C440.288 95.6173 438.708 89.7367 438.708 82.8905C438.708 70.6026 443.272 60.7722 452.4 53.3994C461.704 45.8511 473.816 42.0769 488.737 42.0769C498.217 42.0769 506.818 43.6568 514.542 46.8166C522.441 49.8008 529.2 53.7505 534.817 58.6657L518.228 80.2574C513.489 76.9221 508.749 74.5523 504.009 73.1479C499.27 71.568 494.618 70.7781 490.054 70.7781C484.963 70.7781 481.189 71.7436 478.731 73.6745C476.274 75.6055 475.045 78.0631 475.045 81.0473C475.045 83.5049 475.923 85.6114 477.678 87.3668C479.434 89.1223 482.067 90.7899 485.578 92.3698C489.264 93.7742 493.828 95.354 499.27 97.1094C505.94 99.3915 511.997 102.288 517.438 105.799C523.056 109.134 527.444 113.347 530.604 118.438C533.764 123.529 535.344 129.673 535.344 136.87C535.344 144.769 533.237 151.879 529.024 158.198C524.987 164.518 519.018 169.608 511.119 173.47C503.22 177.157 493.389 179 481.628 179Z" stroke="black" stroke-opacity="0.2" stroke-width="2" mask="url(#path-1-outside-1_65_133)"/>
<path d="M616.012 179C604.953 179 594.596 176.367 584.941 171.101C575.287 165.659 567.387 157.847 561.243 147.666C555.275 137.309 552.291 124.933 552.291 110.538C552.291 96.144 555.275 83.856 561.243 73.6745C567.387 63.3175 575.287 55.5059 584.941 50.2396C594.596 44.7978 604.953 42.0769 616.012 42.0769C626.896 42.0769 637.165 44.7978 646.82 50.2396C656.475 55.5059 664.287 63.3175 670.255 73.6745C676.399 83.856 679.471 96.144 679.471 110.538C679.471 124.933 676.399 137.309 670.255 147.666C664.287 157.847 656.475 165.659 646.82 171.101C637.165 176.367 626.896 179 616.012 179ZM616.012 147.666C621.279 147.666 625.667 146.174 629.178 143.189C632.864 140.205 635.585 135.904 637.341 130.287C639.096 124.67 639.974 118.087 639.974 110.538C639.974 102.99 639.096 96.4073 637.341 90.7899C635.585 85.1726 632.864 80.8718 629.178 77.8876C625.667 74.9033 621.279 73.4112 616.012 73.4112C610.571 73.4112 606.094 74.9033 602.583 77.8876C599.073 80.8718 596.439 85.1726 594.684 90.7899C592.929 96.4073 592.051 102.99 592.051 110.538C592.051 118.087 592.929 124.67 594.684 130.287C596.439 135.904 599.073 140.205 602.583 143.189C606.094 146.174 610.571 147.666 616.012 147.666Z" stroke="black" stroke-opacity="0.2" stroke-width="2" mask="url(#path-1-outside-1_65_133)"/>
<path d="M705.983 175.84V45.2367H737.581L740.214 68.145H741.267C746.007 59.3678 751.624 52.8728 758.12 48.6598C764.79 44.2712 771.549 42.0769 778.395 42.0769C782.081 42.0769 785.153 42.3402 787.611 42.8669C790.068 43.2179 792.175 43.8323 793.93 44.71L786.557 77.6242C784.451 77.0976 782.432 76.7465 780.501 76.571C778.57 76.2199 776.2 76.0444 773.392 76.0444C768.477 76.0444 763.298 77.7998 757.856 81.3106C752.59 84.8215 748.201 91.0532 744.69 100.006V175.84H705.983Z" stroke="black" stroke-opacity="0.2" stroke-width="2" mask="url(#path-1-outside-1_65_133)"/>
<path d="M847.284 179C838.682 179 829.818 177.332 820.689 173.997C811.561 170.662 803.75 165.834 797.254 159.515L813.58 137.66C819.548 142.399 825.429 145.735 831.222 147.666C837.19 149.421 842.896 150.299 848.337 150.299C854.13 150.299 858.343 149.333 860.976 147.402C863.609 145.296 864.926 142.575 864.926 139.24C864.926 136.255 863.697 133.798 861.24 131.867C858.958 129.936 855.886 128.268 852.024 126.864C848.337 125.284 844.124 123.616 839.385 121.861C833.065 119.579 827.272 116.682 822.006 113.172C816.74 109.661 812.439 105.448 809.104 100.533C805.944 95.6173 804.364 89.7367 804.364 82.8905C804.364 70.6026 808.928 60.7722 818.056 53.3994C827.36 45.8511 839.472 42.0769 854.394 42.0769C863.873 42.0769 872.474 43.6568 880.198 46.8166C888.098 49.8008 894.856 53.7505 900.473 58.6657L883.885 80.2574C879.145 76.9221 874.405 74.5523 869.666 73.1479C864.926 71.568 860.274 70.7781 855.71 70.7781C850.619 70.7781 846.845 71.7436 844.388 73.6745C841.93 75.6055 840.701 78.0631 840.701 81.0473C840.701 83.5049 841.579 85.6114 843.334 87.3668C845.09 89.1223 847.723 90.7899 851.234 92.3698C854.92 93.7742 859.484 95.354 864.926 97.1094C871.597 99.3915 877.653 102.288 883.095 105.799C888.712 109.134 893.101 113.347 896.26 118.438C899.42 123.529 901 129.673 901 136.87C901 144.769 898.894 151.879 894.681 158.198C890.643 164.518 884.675 169.608 876.775 173.47C868.876 177.157 859.045 179 847.284 179Z" stroke="black" stroke-opacity="0.2" stroke-width="2" mask="url(#path-1-outside-1_65_133)"/>
</svg>
